<svg version="1.1" xmlns="http://www.w3.org/2000/svg" style="display: block;" viewBox="0 0 2048 2048" width="1024" height="1024"><defs><mask id="svgmaker-watermark-mask" maskUnits="userSpaceOnUse"><rect x="0" y="0" width="2048" height="2048" fill="white"/><path d="M42.21 1172.09L42.21 1172.09Q-4.46 1172.09-32.03 1150.01Q-59.61 1127.94-62.12 1091.88L-62.12 1091.88L-24.51 1091.88Q-22.97 1108.07-13.52 1118.58Q-4.07 1129.09 10.68 1134.20Q25.43 1139.31 42.21 1139.31L42.21 1139.31Q61.68 1139.31 77.20 1132.95Q92.73 1126.59 101.79 1115.02Q110.85 1103.45 110.85 1088.21L110.85 1088.21Q110.85 1074.33 103.04 1065.65Q95.23 1056.97 82.31 1051.38Q69.39 1045.79 53.97 1041.55L53.97 1041.55L19.26 1031.71Q-15.45 1021.88-34.73 1003.56Q-54.02 985.24-54.02 956.70L-54.02 956.70Q-54.02 932.41-40.90 914.18Q-27.79 895.96-5.42 885.93Q16.94 875.91 44.71 875.91L44.71 875.91Q73.06 875.91 94.85 885.93Q116.64 895.96 129.27 913.22Q141.90 930.48 142.67 952.27L142.67 952.27L106.80 952.27Q104.30 931.25 86.75 919.78Q69.20 908.30 43.55 908.30L43.55 908.30Q15.59 908.30-1.37 921.51Q-18.34 934.72-18.34 954.97L-18.34 954.97Q-18.34 970.01-8.99 979.17Q0.36 988.33 13.18 993.44Q26.01 998.55 36.42 1001.44L36.42 1001.44L65.15 1009.34Q76.72 1012.43 90.70 1017.83Q104.68 1023.23 117.41 1032.20Q130.14 1041.16 138.33 1054.95Q146.53 1068.74 146.53 1088.79L146.53 1088.79Q146.53 1112.32 134.28 1131.21Q122.04 1150.11 98.70 1161.10Q75.37 1172.09 42.21 1172.09ZM326.82 1167.08L284.59 1167.08L178.92 879.76L217.49 879.76L278.23 1050.22Q283.05 1063.53 289.90 1085.03Q296.74 1106.53 305.80 1137.38L305.80 1137.38Q314.87 1105.76 321.71 1084.65Q328.56 1063.53 333.19 1050.22L333.19 1050.22L392.38 879.76L431.34 879.76L326.82 1167.08ZM593.51 1170.94L593.51 1170.94Q555.13 1170.94 526.21 1153.00Q497.28 1135.07 481.09 1102.00Q464.89 1068.93 464.89 1023.61L464.89 1023.61Q464.89 977.91 481.09 944.84Q497.28 911.77 525.82 893.84Q554.36 875.91 591.19 875.91L591.19 875.91Q621.66 875.91 646.44 887.77Q671.22 899.62 687.61 920.74Q704.00 941.85 709.20 969.81L709.20 969.81L671.41 969.81Q662.54 942.24 642.20 926.04Q621.85 909.84 591.39 909.84L591.39 909.84Q566.12 909.84 545.49 922.86Q524.86 935.88 512.71 961.23Q500.56 986.59 500.56 1023.61L500.56 1023.61Q500.56 1060.25 512.81 1085.51Q525.05 1110.77 546.07 1123.89Q567.09 1137.00 593.51 1137.00L593.51 1137.00Q617.42 1137.00 635.74 1126.97Q654.06 1116.94 664.56 1098.43Q675.07 1079.92 675.46 1054.66L675.46 1054.66L601.03 1054.66L601.03 1022.65L711.33 1022.65L711.33 1054.08Q711.33 1089.76 696.09 1115.98Q680.86 1142.20 654.34 1156.57Q627.83 1170.94 593.51 1170.94ZM805.62 1167.08L770.72 1167.08L770.72 879.76L822.78 879.76L893.55 1061.02Q897.60 1071.44 903.58 1090.14Q909.56 1108.85 914.76 1126.39L914.76 1126.39Q919.78 1109.42 925.75 1090.62Q931.73 1071.82 935.97 1061.02L935.97 1061.02L1005.78 879.76L1058.03 879.76L1058.03 1167.08L1021.98 1167.08L1021.98 1002.98Q1021.98 987.17 1022.36 964.22Q1022.75 941.28 1023.33 918.91L1023.33 918.91Q1015.42 943.59 1007.42 966.92Q999.41 990.25 994.40 1002.98L994.40 1002.98L930.19 1167.08L898.37 1167.08L833.19 1002.98Q828.37 990.83 820.56 967.79Q812.75 944.75 804.27 919.49L804.27 919.49Q804.66 939.93 805.14 963.16Q805.62 986.40 805.62 1002.98L805.62 1002.98L805.62 1167.08ZM1141.72 1167.08L1102.77 1167.08L1207.09 879.76L1249.51 879.76L1355.19 1167.08L1316.62 1167.08L1287.89 1086.86L1169.49 1086.86L1141.72 1167.08ZM1200.92 996.62L1180.67 1054.85L1276.51 1054.85L1255.69 996.62Q1250.48 982.16 1243.92 961.23Q1237.37 940.31 1228.11 909.07L1228.11 909.07Q1219.05 940.89 1212.30 962.10Q1205.55 983.31 1200.92 996.62L1200.92 996.62ZM1436.56 1167.08L1399.92 1167.08L1399.92 879.76L1436.56 879.76L1436.56 978.11L1435.98 1030.94Q1447.94 1015.32 1460.18 1001.05Q1472.43 986.78 1485.54 972.51L1485.54 972.51L1571.35 879.76L1619.36 879.76L1503.28 1004.14L1619.56 1167.08L1576.17 1167.08L1478.02 1029.01L1436.56 1072.79L1436.56 1167.08ZM1842.08 1167.08L1665.26 1167.08L1665.26 879.76L1840.35 879.76L1840.35 912.16L1701.89 912.16L1701.89 1005.87L1830.90 1005.87L1830.90 1038.27L1701.89 1038.27L1701.89 1134.68L1842.08 1134.68L1842.08 1167.08ZM1939.27 1167.08L1902.63 1167.08L1902.63 879.76L2000.97 879.76Q2034.53 879.76 2056.22 891.24Q2077.91 902.71 2088.42 922.76Q2098.93 942.82 2098.93 968.46L2098.93 968.46Q2098.93 997.00 2085.92 1018.22Q2072.90 1039.43 2045.71 1048.88L2045.71 1048.88L2110.12 1167.08L2067.69 1167.08L2007.92 1055.43Q2004.64 1055.62 2001.17 1055.62L2001.17 1055.62L1939.27 1055.62L1939.27 1167.08ZM1939.27 911.97L1939.27 1023.04L1999.43 1023.04Q2033.37 1023.04 2047.93 1008.38Q2062.49 993.73 2062.49 968.46L2062.49 968.46Q2062.49 942.82 2047.93 927.39Q2033.37 911.97 1999.05 911.97L1999.05 911.97L1939.27 911.97Z" fill="black" opacity="0.2" data-watermark="svgmaker" transform="rotate(-45 1024 1024)"/></mask></defs><g mask="url(#svgmaker-watermark-mask)"><path transform="translate(0,0)" fill="rgb(151,118,253)" d="M 1210.69 1370.41 C 1232.89 1369.26 1254.48 1371.27 1274.71 1381.15 C 1305.68 1396.27 1326.01 1423.82 1337.21 1455.85 C 1321.21 1462.16 1304.2 1465.15 1288.21 1472.01 C 1282.42 1456.05 1275.28 1441.65 1261.37 1431.24 C 1246.5 1420.11 1227.31 1416.51 1209.13 1419.41 C 1192.28 1422.21 1177.29 1431.71 1167.57 1445.74 C 1152.17 1467.53 1149.03 1497.05 1153.5 1522.81 C 1157.08 1543.47 1166.88 1562.02 1184.41 1574.06 C 1200.07 1584.8 1219.38 1588.82 1238.02 1585.21 C 1254.89 1581.99 1267.42 1572.18 1276.92 1558.28 C 1281.93 1550.41 1285.11 1542.42 1288.01 1533.58 C 1304.59 1537.57 1320.96 1542.41 1337.06 1548.08 C 1332.35 1562.63 1325.64 1577 1316.54 1589.33 C 1299.82 1611.97 1275.34 1627.45 1247.38 1631.64 C 1213.82 1636.67 1177.85 1630.8 1150.3 1610.22 C 1122.45 1589.4 1106.83 1558.08 1102.24 1524.01 C 1097.21 1486.72 1104.27 1445.51 1127.65 1415.26 C 1148.81 1387.87 1177.01 1374.68 1210.69 1370.41 z"/><path transform="translate(0,0)" fill="rgb(151,118,253)" d="M 734.924 1140.19 C 782.145 1135.1 824.503 1169.37 829.396 1216.61 C 834.289 1263.86 799.853 1306.08 752.592 1310.78 C 705.598 1315.46 663.666 1281.26 658.801 1234.28 C 653.935 1187.31 687.968 1145.24 734.924 1140.19 z M 751.519 1260.9 C 771.248 1256.86 784.127 1237.79 780.505 1217.98 C 776.883 1198.17 758.088 1184.89 738.205 1188.09 C 724.964 1190.23 713.912 1199.35 709.316 1211.95 C 704.72 1224.55 707.298 1238.65 716.055 1248.81 C 724.813 1258.97 738.38 1263.59 751.519 1260.9 z"/><path transform="translate(0,0)" fill="rgb(151,118,253)" d="M 1037.81 1141.14 C 1084.5 1135.41 1127 1168.62 1132.73 1215.32 C 1138.45 1262.01 1105.25 1304.51 1058.55 1310.24 C 1011.85 1315.97 969.348 1282.76 963.62 1236.06 C 957.891 1189.36 991.106 1146.86 1037.81 1141.14 z M 1053.51 1260.99 C 1073.55 1258.06 1087.43 1239.46 1084.54 1219.41 C 1081.65 1199.37 1063.07 1185.45 1043.02 1188.31 C 1022.92 1191.17 1008.96 1209.81 1011.86 1229.9 C 1014.76 1250 1033.42 1263.92 1053.51 1260.99 z"/><path transform="translate(0,0)" fill="rgb(151,118,253)" d="M 1425.05 1445.4 C 1444.05 1442.61 1469.46 1445.15 1485.8 1455.95 C 1496.67 1463.14 1504.09 1474.13 1507.87 1486.49 C 1512.16 1500.52 1511.8 1515.99 1511.79 1530.5 C 1511.78 1558.16 1509.01 1601.09 1513.96 1626.59 C 1514.04 1626.99 1514.13 1627.39 1514.21 1627.79 L 1470.65 1627.95 C 1469.25 1621.61 1468.41 1615.47 1467.94 1609 C 1462.22 1615.03 1456.29 1620.32 1448.98 1624.36 C 1432.15 1633.68 1409.8 1635.71 1391.43 1630.19 C 1376.75 1625.79 1367.07 1616.79 1359.97 1603.47 C 1354.99 1589.54 1353.56 1573.26 1359.06 1559.23 C 1370.91 1528.96 1412.64 1523.12 1440.33 1517.63 C 1446.65 1516.38 1455.88 1515.6 1461.56 1512.6 C 1463.58 1511.54 1464.76 1509.51 1465.26 1507.3 C 1466.08 1503.65 1464.27 1499.76 1462.32 1496.79 C 1457.46 1489.39 1449.81 1485.03 1441.22 1483.4 C 1432.39 1481.72 1421.76 1482.16 1414.29 1487.7 C 1406.98 1493.12 1404.79 1501 1403.71 1509.61 L 1403.55 1510.92 C 1388.53 1507.86 1373.79 1506.16 1358.54 1504.95 C 1360.42 1492.14 1363.94 1479.99 1372.28 1469.79 C 1385.12 1454.08 1405.61 1447.66 1425.05 1445.4 z M 1412.71 1589.36 C 1423.41 1593.91 1433.06 1593.76 1443.92 1589.33 C 1452.04 1586.01 1459.21 1580.23 1462.45 1571.85 C 1465.21 1564.7 1464.87 1555.49 1464.98 1547.93 L 1464.15 1546.31 L 1463.37 1546.37 C 1446.5 1548.56 1419.27 1550.89 1407.88 1564.96 C 1405.41 1568.02 1404.03 1571.42 1404.64 1575.38 C 1405.46 1580.64 1408.81 1585.87 1412.71 1589.36 z"/><path transform="translate(0,0)" fill="rgb(151,118,253)" d="M 1696.24 1405.22 C 1711.45 1404.87 1726.72 1405.37 1741.95 1405.17 L 1741.84 1448.71 C 1756.16 1448.74 1770.48 1448.59 1784.8 1448.24 C 1784.6 1462.09 1785.99 1477.11 1784.12 1490.76 C 1770.07 1490.65 1756 1490.82 1741.95 1490.87 C 1741.87 1510.42 1739.39 1559.85 1743.41 1575.95 C 1744.6 1580.71 1746.35 1585.13 1750.82 1587.62 C 1761.5 1593.56 1774.1 1589.42 1784.84 1585.97 C 1784.53 1594.7 1784.79 1603.51 1784.83 1612.25 L 1785.03 1626.55 C 1773.75 1630.02 1763.01 1633.02 1751.1 1633.11 C 1736.39 1633.21 1722.35 1629.31 1711.76 1618.53 C 1692.52 1598.97 1695.92 1566.1 1695.99 1540.9 L 1696.19 1490.79 L 1672.47 1490.89 C 1673.06 1476.76 1672.74 1462.45 1672.38 1448.3 C 1680.28 1448.75 1688.22 1448.67 1696.13 1448.76 L 1696.24 1405.22 z"/><path transform="translate(0,0)" fill="rgb(151,118,253)" d="M 1646.85 1444.41 C 1648.85 1444.12 1650.49 1444.14 1652.5 1444.34 C 1655.66 1451.39 1653.97 1482.26 1654.01 1491.83 C 1638.58 1491.74 1621.43 1493.03 1609.74 1504.44 C 1603.46 1510.57 1599.85 1518.64 1597.9 1527.09 C 1594.53 1541.68 1595.62 1557.63 1595.62 1572.53 C 1595.58 1591 1595.65 1609.47 1595.82 1627.94 C 1579.6 1627.59 1563.35 1627.84 1547.13 1627.87 C 1547.34 1620.17 1547.28 1612.45 1547.33 1604.75 C 1547.52 1552.74 1547.4 1500.73 1546.97 1448.73 C 1561.81 1449.12 1576.85 1448.36 1591.7 1448.11 C 1591.84 1458.54 1592.75 1468.99 1593.1 1479.42 C 1595.42 1475.62 1597.95 1471.95 1600.67 1468.42 C 1612.68 1452.71 1627.85 1446.84 1646.85 1444.41 z"/><path transform="translate(0,0)" fill="rgb(252,41,161)" d="M 1185.53 389.962 C 1188.02 389.885 1190.44 389.607 1192.77 390.65 C 1197.58 392.812 1211.13 447.275 1214.95 457.666 C 1229.35 496.826 1255.9 520.388 1293.86 536.321 C 1302.47 539.936 1312.19 541.396 1320.45 545.448 C 1323.15 546.771 1325.49 548.935 1326.12 552.009 C 1326.8 555.341 1326.21 557.793 1323.74 560.169 C 1316.94 566.729 1292.37 573.315 1282.38 577.767 C 1272.01 582.387 1262.47 587.891 1253.54 594.919 C 1228.21 614.849 1212.65 643.087 1205.15 674.104 C 1202.82 683.754 1201.08 696.199 1195.55 704.599 C 1193.85 707.173 1190.13 707.29 1187.31 707.787 C 1180.31 703.292 1179.14 697.839 1177.14 690.077 C 1172.55 672.301 1168.57 654.978 1160.37 638.405 C 1152.39 622.262 1141 606.668 1126.65 595.586 C 1117.64 588.631 1107.06 583.221 1096.57 578.909 C 1084.69 574.028 1050.82 566.791 1045.33 556.217 C 1045.76 552.47 1046.76 549.681 1050.03 547.508 C 1057.27 542.678 1066.62 540.524 1074.85 537.842 C 1096.91 530.654 1116.93 520.813 1133.56 504.35 C 1144.26 493.902 1152.92 481.554 1159.1 467.937 C 1165.77 453.172 1169.86 437.248 1173.72 421.561 C 1175.8 413.126 1177.46 403.742 1180.96 395.786 C 1182.01 393.421 1183.66 391.695 1185.53 389.962 z"/><path transform="translate(0,0)" fill="rgb(252,41,161)" d="M 752.714 634.227 C 767.217 633.471 781.344 637.011 795.592 639.277 C 818.266 642.813 840.901 646.604 863.49 650.648 C 884.07 654.244 905.874 656.56 926.082 661.704 C 930.446 662.815 937.937 664.877 940.961 668.227 C 945.198 672.919 944.681 682.221 943.933 688.002 C 942.446 699.493 939.274 710.9 937.174 722.307 C 934.306 737.885 933.84 757.333 926.772 771.64 C 925.262 774.696 922.788 776.61 920.148 778.659 C 916.755 779.243 913.459 779.252 910.042 778.8 C 879.017 774.696 847.899 768.002 817.059 762.61 C 793.565 758.502 769.046 755.783 745.9 750.143 C 741.976 749.187 733.417 747.391 731.205 744.032 C 729.014 740.702 728.637 736.551 728.695 732.658 C 728.907 718.652 733.087 703.79 735.386 689.899 C 737.437 677.507 738.448 664.821 741.298 652.569 C 743.159 644.564 745.601 638.669 752.714 634.227 z"/><path transform="translate(0,0)" fill="rgb(252,41,161)" d="M 921.608 424.24 C 924.119 424.033 926.833 423.691 929.333 424.081 C 933.2 424.685 936.505 426.936 938.788 430.062 C 943.506 436.524 943.473 444.38 943.412 452.054 C 943.307 465.353 940.884 478.815 939.287 491.999 L 932.544 549.1 C 929.661 572.762 928.316 599.992 923.667 622.992 C 922.747 627.544 921.219 630.093 917.349 632.693 C 906.938 634.747 846.162 621.89 831.769 619.017 C 822.196 617.184 811.322 616.73 802.307 612.926 C 798.966 611.516 795.408 609.383 794.141 605.802 C 792.539 601.273 792.469 595.51 792.683 590.722 C 793.468 573.109 803.471 492.066 809.858 479.205 C 816.345 466.142 903.248 430.971 921.608 424.24 z"/><path transform="translate(0,0)" fill="rgb(252,41,161)" d="M 1021.06 362.26 C 1023.63 362.064 1028.29 361.416 1030.44 363.049 C 1037.76 368.608 1039.64 387.873 1047.09 395.687 C 1054.02 402.943 1066.07 404.596 1074.33 409.997 C 1076.82 411.619 1079.33 414.035 1079.54 417.173 C 1080.49 430.983 1057.22 434.194 1048.74 441.283 C 1038.17 450.111 1039.53 466.847 1029.78 476.527 C 1027.65 476.476 1024.45 476.593 1022.5 475.765 C 1015.02 472.587 1010.68 448.921 1003.52 442.194 C 995.676 434.821 983.481 433.747 975.403 426.877 C 972.843 424.699 970.955 421.877 970.826 418.429 C 970.367 406.147 992.825 403.751 1000.72 397.164 C 1012.17 387.602 1011.88 372.71 1021.06 362.26 z"/><path transform="translate(0,0)" fill="rgb(252,41,161)" d="M 1059.88 663.79 C 1060.26 663.781 1060.64 663.761 1061.02 663.765 C 1074.08 663.903 1074.37 683.818 1081.05 692.394 C 1088.32 701.735 1104.07 699.932 1110.92 708.305 C 1112.59 710.345 1113.48 712.31 1113.11 714.987 C 1111.3 728.109 1088.8 728.658 1080.8 738.347 C 1074.15 746.405 1074.66 757.183 1066.28 764.617 C 1064 764.529 1060.88 764.628 1058.99 763.075 C 1051.63 757.009 1049.86 739.779 1040.51 732.813 C 1033.61 727.678 1023.21 727.382 1017.02 721.327 C 1014.92 719.273 1013.85 716.674 1013.97 713.739 C 1014.37 703.296 1034.12 701.454 1041.42 695.745 C 1051.71 687.707 1050.41 672.57 1059.88 663.79 z"/><path transform="translate(0,0)" fill="rgb(151,118,253)" d="M 908.934 1043.32 C 922.872 1041.7 937.832 1042.55 951.879 1042.51 L 1047.57 1042.37 C 1064.87 1042.34 1083.1 1043.44 1100.25 1041.4 C 1108.92 1040.38 1117.24 1038.4 1125.04 1034.38 C 1134.65 1029.43 1143.91 1021.76 1149.11 1012.17 C 1159.95 992.158 1164.31 966.735 1170.13 944.757 L 1199.35 833.826 C 1204.02 816.207 1207.89 797.838 1213.64 780.559 C 1216.24 772.744 1220.94 765.886 1228.61 762.33 C 1236.26 758.788 1246.28 758.82 1254.07 761.854 C 1261.27 764.656 1267.21 770.141 1270.09 777.361 C 1272.38 783.135 1271.74 788.057 1270.67 794.012 C 1268.21 807.596 1263.79 821.203 1260.18 834.543 L 1241.16 905.164 L 1221.38 980.129 C 1216.85 997.31 1213 1015.35 1205.99 1031.69 C 1193.96 1059.76 1168.62 1083.48 1140.24 1094.62 C 1129.39 1098.88 1117.69 1101.91 1106.04 1102.74 C 1083.27 1104.36 1059.86 1103.32 1037 1103.32 L 910.375 1103.29 L 774.209 1103.36 C 749.619 1103.37 724.508 1104.42 699.981 1102.88 C 687.891 1102.12 676.252 1100.65 665.122 1095.7 C 643.915 1086.27 623.675 1071.64 611.712 1051.24 C 596.759 1025.74 591.96 991.11 585.145 962.363 L 541.015 775.41 C 535.181 750.559 527.951 708.734 519.107 686.394 C 515.615 677.574 510.504 670.092 502.015 665.457 C 484.36 655.816 434.407 659.899 412.466 660.093 C 403.373 660.174 393.244 661.13 384.796 657.137 C 378.54 654.181 373.763 649.111 371.621 642.494 C 369.164 634.905 369.918 625.494 373.82 618.509 C 378.103 610.846 385.925 606.124 394.322 604.175 C 410.249 600.479 485.389 601.99 502.4 605.243 C 514.649 607.585 526.084 611.759 536.761 618.234 C 553.539 628.409 565.735 643.042 573.709 660.939 C 579.716 674.421 582 689.183 585.333 703.469 C 590.121 723.574 594.807 743.703 599.39 763.855 C 616.221 838.604 633.489 913.254 651.194 987.801 C 652.84 994.284 654.292 1000.87 656.674 1007.13 C 656.847 1006.69 657.032 1006.24 657.194 1005.79 C 659.563 999.197 663.208 970.258 664.648 961.48 C 671.478 920.223 678.624 879.019 686.085 837.871 C 688.88 821.698 691.571 793.624 697.117 779.289 C 698.23 776.411 701.044 774.032 703.752 772.687 C 708.004 770.575 713.087 770.252 717.74 770.699 C 731.236 771.995 745.002 775.39 758.361 777.781 L 827.744 789.726 L 890.451 800.482 C 906.011 803.057 924.041 804.343 938.671 810.158 C 942.642 811.736 945.155 814.373 946.788 818.328 C 948.584 822.679 948.389 827.234 947.945 831.828 C 946.288 848.978 941.565 866.154 938.394 883.098 L 921.73 975.017 C 917.871 995.863 913.182 1016.96 910.468 1037.97 C 909.585 1039.87 908.407 1041.24 908.934 1043.32 z"/><path transform="translate(0,0)" fill="rgb(252,41,161)" d="M 656.674 1007.13 C 656.847 1006.69 657.032 1006.24 657.194 1005.79 C 659.563 999.197 663.208 970.258 664.648 961.48 C 671.478 920.223 678.624 879.019 686.085 837.871 C 688.88 821.698 691.571 793.624 697.117 779.289 C 698.23 776.411 701.044 774.032 703.752 772.687 C 708.004 770.575 713.087 770.252 717.74 770.699 C 731.236 771.995 745.002 775.39 758.361 777.781 L 827.744 789.726 L 890.451 800.482 C 906.011 803.057 924.041 804.343 938.671 810.158 C 942.642 811.736 945.155 814.373 946.788 818.328 C 948.584 822.679 948.389 827.234 947.945 831.828 C 946.288 848.978 941.565 866.154 938.394 883.098 L 921.73 975.017 C 917.871 995.863 913.182 1016.96 910.468 1037.97 C 909.585 1039.87 908.407 1041.24 908.934 1043.32 C 902.448 1045.59 731.537 1045.32 709.99 1044 C 702.364 1043.53 693.564 1042.45 686.439 1039.58 C 672.667 1034.02 662.199 1020.4 656.674 1007.13 z"/><path transform="translate(0,0)" fill="rgb(252,41,161)" d="M 486.725 1593.95 C 471.795 1608.74 456.788 1620.52 436.624 1627.35 C 406.177 1637.66 367.844 1635.28 339.077 1620.8 C 309.282 1606.17 286.716 1580.05 276.56 1548.44 C 265.08 1512.82 267.978 1469.78 285.369 1436.54 C 300.457 1407.27 326.59 1385.22 357.982 1375.28 C 394.354 1364.04 433.73 1369.24 467.032 1386.75 C 484.598 1398.31 499.953 1412.01 508.233 1431.76 C 492.398 1439.46 476.655 1447.35 461.008 1455.43 C 449.955 1437.39 436.431 1424.71 415.295 1419.79 C 395.76 1415.25 374.066 1417.95 356.987 1428.69 C 339.195 1439.88 328.088 1458.13 323.723 1478.45 C 318.372 1503.35 320.276 1532.68 334.573 1554.43 C 344.758 1569.93 361.953 1581.61 380.197 1585.14 C 398.471 1588.68 419.588 1586.51 435.066 1575.48 C 450.203 1564.69 456.843 1549.42 460.737 1531.89 C 440.753 1531.89 420.742 1531.68 400.76 1531.89 C 401.026 1518.23 401.81 1503.84 400.465 1490.25 L 512.774 1490.27 C 512.771 1519.46 513.965 1546.33 499.951 1572.88 C 496.082 1580.21 490.397 1586.79 486.725 1593.95 z"/><path transform="translate(0,0)" fill="rgb(252,41,161)" d="M 637.438 1599.54 C 605.848 1562.17 607.865 1506.9 642.096 1471.93 C 676.327 1436.97 731.538 1433.78 769.57 1464.57 C 807.602 1495.36 815.974 1550.02 788.899 1590.78 C 772.389 1615.64 745.146 1631.28 715.356 1633 C 685.566 1634.72 656.702 1622.32 637.438 1599.54 z M 719.016 1586.81 C 745.176 1581.75 762.252 1556.4 757.12 1530.26 C 751.987 1504.11 726.597 1487.1 700.465 1492.3 C 674.431 1497.49 657.501 1522.76 662.614 1548.81 C 667.727 1574.85 692.955 1591.85 719.016 1586.81 z"/><path transform="translate(0,0)" fill="rgb(252,41,161)" d="M 813.653 1447.92 C 820.198 1448.94 859.383 1447.02 861.223 1449.08 C 870.603 1488.06 882.734 1526.38 891.968 1565.41 C 900.742 1529.53 915.502 1495.37 925.063 1459.76 L 928.591 1448.8 C 941.972 1448.53 956.897 1449.89 970.01 1447.84 C 977.343 1485.67 997.548 1525.29 1005.34 1563.49 C 1010.1 1548.49 1013.77 1533.02 1017.94 1517.85 C 1023.3 1498.34 1029.12 1478.83 1033.66 1459.12 C 1034.66 1456.08 1035.24 1452.85 1035.93 1449.72 C 1043.2 1446.15 1076.18 1448.31 1085.4 1448.41 C 1073.8 1489.16 1059.53 1529.35 1048.54 1570.19 C 1042.06 1589.1 1036.27 1608.53 1031.29 1627.89 C 1015.99 1627.26 1000.39 1627.02 985.103 1627.8 L 972.579 1591.55 C 964.776 1567.01 954.218 1542.03 948.523 1516.98 L 930.356 1571.95 C 927.608 1580.16 923.443 1589.38 921.766 1597.78 L 911.423 1627.81 C 895.879 1627.52 880.331 1627.54 864.788 1627.87 C 862.318 1614.91 857.379 1602.27 853.96 1589.51 C 849.161 1575.64 811.317 1453.65 811.529 1448.73 L 813.653 1447.92 z"/><path transform="translate(0,0)" fill="rgb(252,41,161)" d="M 550.219 1373.91 C 562.475 1374.23 576.032 1375.15 588.171 1373.42 C 586.92 1388.81 587.723 1404.79 587.73 1420.24 L 587.757 1502.2 L 587.746 1571.86 C 587.742 1583.19 586.906 1595.43 588.072 1606.67 C 587.889 1613.7 587.663 1620.74 587.803 1627.78 C 571.873 1627.63 555.885 1627.23 539.969 1628 C 542.405 1616.17 540.444 1580.86 540.426 1566.6 L 540.419 1440.27 C 540.412 1418.66 539.382 1396.65 540.507 1375.08 C 542.39 1373.7 547.713 1374.04 550.219 1373.91 z"/></g></svg>